<?xml version="1.0" encoding="UTF-8"?>
<svg width="400px" height="400px" viewBox="0 0 400 400" xmlns="http://www.w3.org/2000/svg" xmlns:xlink="http://www.w3.org/1999/xlink" version="1.1">
 <!-- Generated by Pixelmator Pro 1.5 -->
 <path id="Failed" d="M199.5 390 C93.737 390 8 304.263 8 198.5 8 92.738 93.737 7 199.5 7 305.262 7 391 92.738 391 198.5 391 304.263 305.262 390 199.5 390 Z M131.83 297.646 C137.592 297.726 141.92 293.393 141.92 293.393 L199.25 236.063 C199.25 236.063 247.013 283.823 256.582 293.393 266.151 302.962 275.691 293.393 275.691 293.393 275.691 293.393 285.151 283.932 294.764 274.32 304.376 264.708 294.764 255.209 294.764 255.209 L237.434 197.879 C237.434 197.879 292.165 143.148 294.803 140.51 304.428 130.884 294.803 121.4 294.803 121.4 294.803 121.4 285.238 111.836 275.666 102.264 266.094 92.692 256.543 102.254 256.543 102.254 L199.213 159.584 C199.213 159.584 151.374 111.745 141.883 102.254 132.391 92.762 122.734 102.215 122.734 102.215 122.734 102.215 113.211 111.74 103.625 121.326 94.039 130.913 103.715 140.549 103.715 140.549 L160.988 197.873 C160.988 197.873 113.216 245.645 103.703 255.158 94.19 264.671 103.588 274.244 103.588 274.244 103.588 274.244 113.061 283.719 122.697 293.355 125.859 296.517 129.016 297.608 131.83 297.646 Z" fill="#c42c00" fill-opacity="1" stroke="none"/>
</svg>
