<?xml version="1.0" encoding="UTF-8"?>
<svg width="400px" height="400px" viewBox="0 0 400 400" xmlns="http://www.w3.org/2000/svg" xmlns:xlink="http://www.w3.org/1999/xlink" version="1.1">
 <!-- Generated by Pixelmator Pro 1.5 -->
 <path id="In-Progress" d="M199.5 390 C93.737 390 8 304.263 8 198.5 8 92.738 93.737 7 199.5 7 305.262 7 391 92.738 391 198.5 391 304.263 305.262 390 199.5 390 Z M199.021 351.699 C283.896 351.699 352.699 282.896 352.699 198.021 352.699 113.147 283.896 44.342 199.021 44.342 114.147 44.342 45.342 113.147 45.342 198.021 45.342 282.896 114.147 351.699 199.021 351.699 Z M199.818 318.275 C161.884 318.275 128.083 300.58 106.219 272.994 105.256 271.78 104.422 270.732 103.676 269.797 105.141 271.459 106.443 272.779 106.693 272.559 125.155 256.323 106.324 272.528 199.818 198.906 199.783 200.713 201.104 197.894 199.818 198.906 200.189 179.725 199.916 155.948 199.818 133.719 199.77 122.664 200.288 113.673 199.818 102.395 199.719 100.002 200.308 86.574 199.818 80.385 199.79 80.032 199.748 79.752 199.697 79.531 199.736 79.535 199.775 79.537 199.818 79.537 265.744 79.537 319.188 132.981 319.188 198.906 319.188 264.832 265.744 318.275 199.818 318.275 Z M199.697 79.531 C198.562 79.432 199.336 77.947 199.697 79.531 Z M103.676 269.797 C99.98 265.605 95.256 259.242 103.676 269.797 Z" fill="#0a7bff" fill-opacity="1" stroke="none"/>
</svg>
