<?xml version="1.0" encoding="UTF-8"?>
<svg width="400px" height="400px" viewBox="0 0 400 400" xmlns="http://www.w3.org/2000/svg" xmlns:xlink="http://www.w3.org/1999/xlink" version="1.1">
 <!-- Generated by Pixelmator Pro 1.5 -->
 <defs>
  <path id="Shape" d="M199.5 7 C305.262 7 391 92.738 391 198.5 391 304.263 305.262 390 199.5 390 93.737 390 8 304.263 8 198.5 8 92.738 93.737 7 199.5 7 Z"/>
 </defs>
 <defs>
  <path id="stroke-path" d="M219.141 369.391 L232.078 367.422 248.703 363.359 260.531 359.359 275.953 352.625 286.859 346.688 300.719 337.563 313.516 327.266 325.391 315.672 336.078 303.031 343.234 292.953 351.766 278.563 357.094 267.469 363.188 251.438 366.531 239.703 369.813 222.484 371.125 209.594 371.469 196.422 370.328 178.594 368.406 166.031 364.313 149.172 360.344 137.469 353.609 122.047 347.672 111.141 338.516 97.234 331 87.641 319.625 75.453 307.313 64.516 293.828 54.688 279.688 46.328 264.469 39.219 248.672 33.656 232.031 29.609 214.891 27.203 199.5 26.531 183.938 27.219 171.172 28.844 158.641 31.391 142.203 36.281 130.891 40.734 115.672 48.297 101.625 57.078 88.5 67.125 76.344 78.469 68.188 87.406 57.953 100.781 51.438 110.938 43.438 126.094 38.734 137.234 33.453 153.5 30.594 165.859 28.172 183.234 27.516 196.125 27.859 209.594 29.188 222.766 31.391 235.031 35.938 251.844 40.188 263.453 47.297 278.703 53.391 289.313 62.938 303.063 73.594 315.672 85.469 327.266 98.266 337.563 108.516 344.5 123.156 352.672 134.328 357.734 150.453 363.406 162.641 366.531 179.875 369.391 192.75 370.375 206.234 370.375 Z"/>
 </defs>
 <use id="Shape-1" stroke="#a2a2a2" stroke-opacity="1" stroke-linecap="round" fill="none" stroke-width="39" xlink:href="#stroke-path"/>
</svg>
