<?xml version="1.0" encoding="UTF-8"?>
<svg width="400px" height="400px" viewBox="0 0 400 400" xmlns="http://www.w3.org/2000/svg" xmlns:xlink="http://www.w3.org/1999/xlink" version="1.1">
 <!-- Generated by Pixelmator Pro 1.5 -->
 <defs>
  <path id="Schedule---2" d="M200.5 7 C306.262 7 392 92.738 392 198.5 392 304.263 306.262 390 200.5 390 94.737 390 9 304.263 9 198.5 9 92.738 94.737 7 200.5 7 Z"/>
 </defs>
 <defs>
  <path id="stroke-path" d="M220.141 369.391 L233.078 367.422 249.703 363.359 261.531 359.359 276.953 352.625 287.859 346.688 301.719 337.563 314.516 327.266 326.391 315.672 337.078 303.031 344.234 292.953 352.766 278.563 358.094 267.469 364.188 251.438 367.531 239.703 370.813 222.484 372.125 209.594 372.469 196.422 371.328 178.563 369.406 165.922 365.344 149.297 361.344 137.469 354.609 122.047 348.672 111.141 339.516 97.234 332 87.641 320.625 75.453 308.313 64.516 294.891 54.734 280.563 46.25 265.531 39.25 249.563 33.609 233.125 29.609 215.938 27.219 200.5 26.516 184.938 27.219 172.172 28.844 159.641 31.391 143.203 36.281 131.891 40.734 116.672 48.297 102.625 57.078 89.5 67.125 77.344 78.469 69.188 87.406 58.953 100.781 52.438 110.938 44.438 126.094 39.734 137.234 34.453 153.5 31.594 165.859 29.172 183.234 28.516 196.125 28.859 209.594 30.188 222.766 32.391 235.031 36.938 251.844 41.188 263.453 48.297 278.703 54.391 289.313 63.938 303.063 74.594 315.672 86.469 327.266 99.266 337.563 109.516 344.5 124.156 352.672 135.328 357.734 151.453 363.406 163.641 366.531 180.875 369.391 193.75 370.375 207.234 370.375 Z"/>
 </defs>
 <use id="Schedule---2-1" stroke="#ffb800" stroke-opacity="1" stroke-linecap="round" fill="none" stroke-width="39" xlink:href="#stroke-path"/>
 <path id="Shape" d="M201 90 L200 198 280 261 280 261" fill="none" stroke="#ffb800" stroke-width="39" stroke-opacity="1" stroke-linejoin="round"/>
</svg>
