<?xml version="1.0" encoding="UTF-8"?>
<svg width="400px" height="400px" viewBox="0 0 400 400" xmlns="http://www.w3.org/2000/svg" xmlns:xlink="http://www.w3.org/1999/xlink" version="1.1">
 <!-- Generated by Pixelmator Pro 1.5 -->
 <path id="Scheduled---1" d="M199.023 390 C93.525 390 8 304.263 8 198.5 8 92.738 93.525 7 199.023 7 304.522 7 390.045 92.738 390.045 198.5 390.045 304.263 304.522 390 199.023 390 Z M269.447 288.008 C274.497 288.011 279.656 286.283 283.512 282.418 285.172 280.754 292.197 266.262 281.916 255.955 258.701 232.683 223.233 196.172 220.248 193.18 L220.248 92.111 C220.248 80.36 210.745 70.834 199.023 70.834 187.301 70.834 177.797 80.36 177.797 92.111 L177.797 193.18 C177.797 204.931 182.891 210.615 193.717 219.777 L255.4 282.613 C258.82 286.042 264.072 288.005 269.447 288.008 Z" fill="#ffb800" fill-opacity="1" stroke="none"/>
</svg>
